<svg fill="#000000" xmlns="http://www.w3.org/2000/svg"  viewBox="0 0 50 50" width="50px" height="50px"><path d="M 25 2 C 12.309295 2 2 12.309295 2 25 C 2 37.690705 12.309295 48 25 48 C 37.690705 48 48 37.690705 48 25 C 48 12.309295 37.690705 2 25 2 z M 25 4 C 36.609824 4 46 13.390176 46 25 C 46 36.609824 36.609824 46 25 46 C 13.390176 46 4 36.609824 4 25 C 4 13.390176 13.390176 4 25 4 z M 25 6 C 14.518434 6 6 14.518434 6 25 C 6 35.481566 14.518434 44 25 44 C 35.481566 44 44 35.481566 44 25 C 44 14.518434 35.481566 6 25 6 z M 25 8 C 25.087712 8 25.172372 8.0123534 25.259766 8.0136719 L 26.125 11.375 L 25.324219 12.654297 L 23 10.5 L 23 8.1269531 C 23.656946 8.0501036 24.322148 8 25 8 z M 25.455078 8.0234375 C 28.913163 8.1148373 32.107932 9.2275204 34.751953 11.082031 L 33.25 16.25 L 32.40625 17.308594 C 32.407343 17.163588 32.39698 16.691902 32.060547 16.355469 C 31.669547 15.964469 31 16.001953 31 16.001953 C 31 16.001953 30.962516 16.6715 31.353516 17.0625 C 31.699604 17.407703 32.201017 17.410128 32.326172 17.408203 L 30.707031 19.4375 L 30.376953 14.761719 L 31.994141 11.128906 L 31.402344 11.853516 C 31.400102 11.674804 31.377096 11.256002 31.060547 10.939453 C 30.669547 10.548453 30 10.585938 30 10.585938 C 30 10.585938 29.962516 11.255484 30.353516 11.646484 C 30.682679 11.974806 31.134545 11.990093 31.292969 11.990234 L 30.269531 13.244141 L 29.001953 9.5351562 L 29.5 14 L 29.75 23.375 L 28.136719 26.644531 C 28.10172 26.420435 28.020922 26.149828 27.810547 25.939453 C 27.419547 25.548453 26.75 25.585938 26.75 25.585938 C 26.75 25.585938 26.712516 26.255484 27.103516 26.646484 C 27.394784 26.937008 27.760132 26.975665 27.96875 26.984375 L 26 30.974609 L 25.998047 21.539062 L 26 21.421875 L 25.357422 19.810547 L 26.658203 18.115234 C 26.70781 18.297898 26.783414 18.492399 26.9375 18.646484 C 27.3285 19.036484 27.998047 19 27.998047 19 C 27.998047 19 28.035531 18.330453 27.644531 17.939453 C 27.457899 17.752821 27.21056 17.667175 27 17.625 L 27 14.5 L 26.394531 17.162109 C 26.376969 16.935082 26.322529 16.617451 26.060547 16.355469 C 25.669547 15.964469 25 16.001953 25 16.001953 C 25 16.001953 24.962516 16.6715 25.353516 17.0625 C 25.653782 17.361999 26.036778 17.396069 26.236328 17.402344 L 24.957031 18.806641 L 24.056641 16.544922 L 27 11.5 L 26.322266 9.9746094 C 26.55173 9.9452881 26.83505 9.8739341 27.0625 9.6464844 C 27.4525 9.2554844 27.416016 8.5859375 27.416016 8.5859375 C 27.416016 8.5859375 26.746469 8.5484531 26.355469 8.9394531 C 26.20968 9.085242 26.134872 9.2652815 26.083984 9.4394531 L 25.455078 8.0234375 z M 22.783203 8.1601562 L 22.25 10.75 L 24.802734 13.486328 L 23.982422 14.796875 C 23.97295 14.585196 23.932317 14.227239 23.644531 13.939453 C 23.253531 13.548453 22.583984 13.585938 22.583984 13.585938 C 22.583984 13.585938 22.5465 14.255484 22.9375 14.646484 C 23.258655 14.966818 23.689593 14.986737 23.861328 14.988281 L 22.943359 16.455078 L 23.396484 17.587891 C 23.363877 17.58635 22.736527 17.558395 22.355469 17.939453 C 21.964469 18.330453 22.001953 19 22.001953 19 C 22.001953 19 22.6715 19.036484 23.0625 18.646484 C 23.43253 18.276454 23.414599 17.692381 23.412109 17.626953 L 24.941406 21.449219 C 24.863429 21.367805 24.496437 21 24 21 C 23.448 21 23 21.5 23 21.5 C 23 21.5 23.448 22 24 22 C 24.524218 22 24.928705 21.570781 24.970703 21.525391 L 24.992188 21.578125 L 24.742188 24.830078 L 21.082031 20.775391 L 24.640625 26.142578 L 24.234375 31.449219 L 22.03125 26.984375 C 22.239868 26.975665 22.605216 26.937008 22.896484 26.646484 C 23.287484 26.255484 23.25 25.585938 23.25 25.585938 C 23.25 25.585938 22.580453 25.548453 22.189453 25.939453 C 21.979078 26.149828 21.89828 26.420435 21.863281 26.644531 L 20.25 23.375 L 20.5 14 L 20.998047 9.5351562 L 19.730469 13.244141 L 18.707031 11.990234 C 18.865455 11.990093 19.317321 11.974806 19.646484 11.646484 C 20.037484 11.255484 20 10.585938 20 10.585938 C 20 10.585938 19.330453 10.548453 18.939453 10.939453 C 18.622904 11.256002 18.599898 11.674804 18.597656 11.853516 L 18.005859 11.128906 L 19.623047 14.761719 L 19.292969 19.4375 L 17.673828 17.408203 C 17.798983 17.410128 18.300396 17.407703 18.646484 17.0625 C 19.037484 16.6715 19 16.001953 19 16.001953 C 19 16.001953 18.330453 15.964469 17.939453 16.355469 C 17.60302 16.691902 17.592657 17.163588 17.59375 17.308594 L 16.75 16.25 L 15.248047 11.082031 C 17.436566 9.5470088 20.002218 8.5219546 22.783203 8.1601562 z M 15.130859 11.167969 L 15.628906 14.230469 C 15.579367 14.127554 15.521561 14.025467 15.435547 13.939453 C 15.044547 13.548453 14.375 13.585938 14.375 13.585938 C 14.375 13.585938 14.338516 14.255484 14.728516 14.646484 C 15.1016 15.019568 15.69722 15.000351 15.753906 14.998047 L 16.025391 16.658203 L 19.189453 20.917969 L 19 23.589844 L 20.240234 26.384766 C 20.09549 26.248352 19.799931 26 19.375 26 C 18.823 26 18.375 26.5 18.375 26.5 C 18.375 26.5 18.823 27 19.375 27 C 19.869463 27 20.234143 26.636371 20.314453 26.552734 L 22.115234 30.613281 L 14.984375 27.183594 L 14.75 22.375 L 14 17 L 14 22.5 L 14 26.292969 L 10.935547 23.228516 L 10.701172 20.40625 C 10.854265 20.406563 11.314349 20.393786 11.646484 20.0625 C 12.037484 19.6715 12 19.001953 12 19.001953 C 12 19.001953 11.330453 18.964469 10.939453 19.355469 C 10.783783 19.511139 10.707534 19.706396 10.658203 19.890625 L 10.5 18 L 10.121094 21.789062 L 8.890625 19.591797 C 10.039234 16.161366 12.246511 13.228044 15.130859 11.167969 z M 34.869141 11.167969 C 37.753489 13.228044 39.960766 16.161366 41.109375 19.591797 L 39.878906 21.791016 L 39.5 18 L 39.341797 19.890625 C 39.292466 19.706396 39.216217 19.511139 39.060547 19.355469 C 38.669547 18.964469 38 19.001953 38 19.001953 C 38 19.001953 37.962516 19.6715 38.353516 20.0625 C 38.685651 20.393786 39.145735 20.406563 39.298828 20.40625 L 39.064453 23.228516 L 36 26.292969 L 36 22.5 L 36 17 L 35.25 22.375 L 35.015625 27.183594 L 27.884766 30.613281 L 29.685547 26.552734 C 29.765857 26.636371 30.130537 27 30.625 27 C 31.177 27 31.625 26.5 31.625 26.5 C 31.625 26.5 31.177 26 30.625 26 C 30.200069 26 29.90451 26.248352 29.759766 26.384766 L 31 23.589844 L 30.810547 20.917969 L 33.974609 16.658203 L 34.246094 14.998047 C 34.30278 15.000351 34.8984 15.019568 35.271484 14.646484 C 35.661484 14.255484 35.625 13.585938 35.625 13.585938 C 35.625 13.585938 34.955453 13.548453 34.564453 13.939453 C 34.478439 14.025467 34.420633 14.127554 34.371094 14.230469 L 34.869141 11.167969 z M 17.416016 11.585938 C 17.416016 11.585938 16.746469 11.548453 16.355469 11.939453 C 15.964469 12.330453 16.001953 13 16.001953 13 C 16.001953 13 16.6715 13.036484 17.0625 12.646484 C 17.4535 12.255484 17.416016 11.585938 17.416016 11.585938 z M 32.583984 11.585938 C 32.583984 11.585938 32.5465 12.255484 32.9375 12.646484 C 33.3285 13.036484 33.998047 13 33.998047 13 C 33.998047 13 34.035531 12.330453 33.644531 11.939453 C 33.253531 11.548453 32.583984 11.585938 32.583984 11.585938 z M 16 19.585938 C 16 19.585938 15.330453 19.548453 14.939453 19.939453 C 14.548453 20.330453 14.585938 21 14.585938 21 C 14.585938 21 15.255484 21.036484 15.646484 20.646484 C 16.037484 20.255484 16 19.585938 16 19.585938 z M 34 19.585938 C 34 19.585938 33.962516 20.255484 34.353516 20.646484 C 34.744516 21.036484 35.414062 21 35.414062 21 C 35.414062 21 35.451547 20.330453 35.060547 19.939453 C 34.669547 19.548453 34 19.585938 34 19.585938 z M 8.7363281 20.050781 L 9.828125 23.097656 L 8.0839844 23.351562 C 8.1930781 22.21448 8.4150175 21.110804 8.7363281 20.050781 z M 41.263672 20.050781 C 41.585164 21.111402 41.806986 22.215754 41.916016 23.353516 L 40.169922 23.099609 L 41.263672 20.050781 z M 27 21 C 26.448 21 26 21.5 26 21.5 C 26 21.5 26.448 22 27 22 C 27.552 22 28 21.5 28 21.5 C 28 21.5 27.552 21 27 21 z M 17.583984 21.585938 C 17.583984 21.585938 17.5475 22.255484 17.9375 22.646484 C 18.3285 23.037484 18.998047 23 18.998047 23 C 18.998047 23 19.035531 22.330453 18.644531 21.939453 C 18.253531 21.548453 17.583984 21.585938 17.583984 21.585938 z M 32.416016 21.585938 C 32.416016 21.585938 31.746469 21.548453 31.355469 21.939453 C 30.964469 22.330453 31.001953 23 31.001953 23 C 31.001953 23 31.6715 23.037484 32.0625 22.646484 C 32.4525 22.255484 32.416016 21.585938 32.416016 21.585938 z M 12.583984 22.585938 C 12.583984 22.585938 12.5475 23.255484 12.9375 23.646484 C 13.3285 24.037484 13.998047 24 13.998047 24 C 13.998047 24 14.035531 23.330453 13.644531 22.939453 C 13.253531 22.548453 12.583984 22.585938 12.583984 22.585938 z M 37.416016 22.585938 C 37.416016 22.585938 36.746469 22.548453 36.355469 22.939453 C 35.964469 23.330453 36.001953 24 36.001953 24 C 36.001953 24 36.6715 24.037484 37.0625 23.646484 C 37.4525 23.255484 37.416016 22.585938 37.416016 22.585938 z M 16.416016 23.585938 C 16.416016 23.585938 15.746469 23.548453 15.355469 23.939453 C 14.964469 24.330453 15.001953 25 15.001953 25 C 15.001953 25 15.6715 25.036484 16.0625 24.646484 C 16.4535 24.255484 16.416016 23.585938 16.416016 23.585938 z M 33.583984 23.585938 C 33.583984 23.585938 33.5465 24.255484 33.9375 24.646484 C 34.3285 25.036484 34.998047 25 34.998047 25 C 34.998047 25 35.035531 24.330453 34.644531 23.939453 C 34.253531 23.548453 33.583984 23.585938 33.583984 23.585938 z M 41.931641 23.644531 C 41.96699 24.09296 42 24.542365 42 25 C 42 26.526882 41.794392 28.004123 41.417969 29.410156 L 39.625 29.25 L 35.896484 27.810547 L 39.089844 24.583984 C 39.141537 24.751048 39.214351 24.923336 39.353516 25.0625 C 39.744516 25.4525 40.414062 25.416016 40.414062 25.416016 C 40.414062 25.416016 40.451547 24.746469 40.060547 24.355469 C 39.920281 24.215203 39.748342 24.141417 39.580078 24.089844 L 39.697266 23.970703 L 41.931641 23.644531 z M 8.0683594 23.646484 L 10.302734 23.970703 L 10.419922 24.089844 C 10.251658 24.141417 10.079719 24.215203 9.9394531 24.355469 C 9.5484531 24.746469 9.5859375 25.416016 9.5859375 25.416016 C 9.5859375 25.416016 10.255484 25.4525 10.646484 25.0625 C 10.785649 24.923336 10.858463 24.751048 10.910156 24.583984 L 14.103516 27.810547 L 10.375 29.25 L 8.5820312 29.410156 C 8.2056084 28.004123 8 26.526882 8 25 C 8 24.543022 8.0331104 24.094283 8.0683594 23.646484 z M 11 27.001953 C 11 27.001953 10.963516 27.6715 11.353516 28.0625 C 11.744516 28.4535 12.414062 28.416016 12.414062 28.416016 C 12.414062 28.416016 12.451547 27.746469 12.060547 27.355469 C 11.669547 26.964469 11 27.001953 11 27.001953 z M 39 27.001953 C 39 27.001953 38.330453 26.964469 37.939453 27.355469 C 37.548453 27.746469 37.585938 28.416016 37.585938 28.416016 C 37.585938 28.416016 38.255484 28.4535 38.646484 28.0625 C 39.036484 27.6715 39 27.001953 39 27.001953 z M 15.330078 28.513672 L 22.931641 32.755859 L 22.115234 41.738281 C 15.645831 40.633737 10.433681 35.893554 8.6582031 29.685547 L 10.5 30 L 15.330078 28.513672 z M 10.5 30 C 10.5 30 10 30.448 10 31 C 10 31.552 10.5 32 10.5 32 C 10.5 32 11 31.552 11 31 C 11 30.448 10.5 30 10.5 30 z M 34.669922 28.513672 L 39.5 30 L 41.341797 29.685547 C 39.566319 35.893554 34.354169 40.633737 27.884766 41.738281 L 27.068359 32.755859 L 34.669922 28.513672 z M 39.5 30 C 39.5 30 39 30.448 39 31 C 39 31.552 39.5 32 39.5 32 C 39.5 32 40 31.552 40 31 C 40 30.448 39.5 30 39.5 30 z"/></svg>